{"title":"X.Men.Apocalypse.2016.TC.x264.AAC-ColorCorrected.mp4","uid":14788217,"size":894415906,"categoryP":"video","categoryS":"movies","magnet":"?xt=urn:btih:83c1ece5101d2a247b490d4d7e184c13840e92ab&amp;dn=X.Men.Apocalypse.2016.TC.x264.AAC-ColorCorrected.mp4&amp;tr=udp%3A%2F%2Ftracker.leechers-paradise.org%3A6969&amp;tr=udp%3A%2F%2Fzer0day.ch%3A1337&amp;tr=udp%3A%2F%2Fopen.demonii.com%3A1337&amp;tr=udp%3A%2F%2Ftracker.coppersurfer.tk%3A6969&amp;tr=udp%3A%2F%2Fexodus.desync.com%3A6969","seeders":2,"leechers":3,"uploader":"PurePowerPunk","files":1,"time":1465038349,"description":"\nFormat                    : MPEG-4\r\nFormat profile            : Base Media / Version 2\r\nCodec ID                  : mp42\r\nFile size                 : 853 MiB\r\nDuration                  : 2h 23mn\r\nOverall bit rate mode     : Variable\r\nOverall bit rate          : 828 Kbps\r\nEncoded date              : UTC 2016-06-04 08:58:58\r\nTagged date               : UTC 2016-06-04 09:00:02\r\n©TIM                      : 00;00;00;00\r\n©TSC                      : 2997\r\n©TSZ                      : 100\r\n\r\nVideo\r\n-----\r\nID                        : 1\r\nFormat                    : AVC\r\nFormat/Info               : Advanced Video Codec\r\nFormat profile            :   \r\nFormat settings, CABAC    : Yes\r\nFormat settings, ReFrames : 3 frames\r\nFormat settings, GOP      : M=3, N=33\r\nCodec ID                  : avc1\r\nCodec ID/Info             : Advanced Video Coding\r\nDuration                  : 2h 23mn\r\nSource duration           : 2h 23mn\r\nBit rate                  : 694 Kbps\r\nWidth                     : 720 pixels\r\nHeight                    : 304 pixels\r\nDisplay aspect ratio      : 2.35:1\r\nFrame rate mode           : Variable\r\nFrame rate                : 29.970 fps\r\nMinimum frame rate        : 29.970 fps\r\nMaximum frame rate        : 30.000 fps\r\nStandard                  : NTSC\r\nColor space               : YUV\r\nChroma subsampling        : 4:2:0\r\nBit depth                 : 8 bits\r\nScan type                 : Progressive\r\nBits/(Pixel*Frame)        : 0.106\r\nStream size               : 715 MiB (84%)\r\nSource stream size        : 715 MiB (84%)\r\nLanguage                  : English\r\nEncoded date              : UTC 2016-06-04 08:58:58\r\nTagged date               : UTC 2016-06-04 08:58:58\r\nmdhd_Duration             : 8638230\r\nColor primaries           : BT.601 NTSC\r\nTransfer characteristics  : BT.601\r\nMatrix coefficients       : BT.601\r\n\r\nAudio\r\n-----\r\nID                        : 2\r\nFormat                    : AAC\r\nFormat/Info               : Advanced Audio Codec\r\nFormat profile            : LC\r\nCodec ID                  : 40\r\nDuration                  : 2h 23mn\r\nSource duration           : 2h 23mn\r\nBit rate mode             : Variable\r\nBit rate                  : 125 Kbps\r\nMaximum bit rate          : 205 Kbps\r\nChannel count             : 2 channels\r\nChannel positions         : Front: L R\r\nSampling rate             : 48.0 KHz\r\nCompression mode          : Lossy\r\nStream size               : 129 MiB (15%)\r\nSource stream size        : 129 MiB (15%)\r\nLanguage                  : English","torrent":{"xt":"urn:btih:83c1ece5101d2a247b490d4d7e184c13840e92ab","amp;dn":"X.Men.Apocalypse.2016.TC.x264.AAC-ColorCorrected.mp4","amp;tr":["udp%3A%2F%2Ftracker.leechers-paradise.org%3A6969","udp%3A%2F%2Fzer0day.ch%3A1337","udp%3A%2F%2Fopen.demonii.com%3A1337","udp%3A%2F%2Ftracker.coppersurfer.tk%3A6969","udp%3A%2F%2Fexodus.desync.com%3A6969"],"infoHash":"83c1ece5101d2a247b490d4d7e184c13840e92ab","infoHashBuffer":{"type":"Buffer","data":[131,193,236,229,16,29,42,36,123,73,13,77,126,24,76,19,132,14,146,171]},"announce":[],"urlList":[]}}